<?xml version="1.0" encoding="UTF-8"?>
<svg width="120px" height="59px" viewBox="0 0 169 59" version="1.1" xmlns="http://www.w3.org/2000/svg" xmlns:xlink="http://www.w3.org/1999/xlink">
    <title>Group 2</title>
    <g id="Page-1" stroke="none" stroke-width="1" fill="none" fill-rule="evenodd">
        <g id="Mobile" transform="translate(-415.000000, -142.000000)">
            <g id="Group-2" transform="translate(415.000000, 142.000000)">
                <g id="Group" transform="translate(25.500000, 29.500000) rotate(20.000000) translate(-25.500000, -29.500000) translate(8.000000, 5.000000)" fill="#121212" opacity="0.536246366">
                    <ellipse id="Oval" cx="12" cy="38" rx="12" ry="11"></ellipse>
                    <path d="M20,29.6582156 C20,28.2625699 20,18.916763 20,1.62079499 C20.4653825,1.1946284 20.798632,0.895916201 20.9997483,0.724658389 C21.473026,0.321645412 21.8712192,0 22.1650493,0 C22.6461714,0 23.1959694,0.540264996 23.8144433,1.62079499 C25.3959856,5.13271918 26.6831977,7.63496073 27.6760796,9.12751964 C29.2493657,11.4925767 31.356272,13.424275 32.7334558,15.2506932 C33.6541232,16.4716804 34.0682495,17.7234902 34.4457155,18.7384147 C35.381288,21.2539675 34.958599,22.731723 34.4457155,24.4217797 C34.2479869,25.0733361 33.9205468,26.1209918 33.4633952,27.564747 C31.918668,23.8776884 30.6079026,21.4597815 29.5310991,20.3110263 C28.4542955,19.1622711 26.5487436,18.1489474 23.8144433,17.2710553 L23.8144433,41 C23.690184,37.7859759 23.4565128,35.7261191 23.1134296,34.8204296 C21.8016021,31.3573958 20,30.6606216 20,29.6582156 Z" id="Path"></path>
                </g>
                <path d="M54.16,49.24 L57.96,27.36 L58.08,27.36 L59.8,49.24 L63.56,49.24 L73.08,27.36 L73.2,27.36 L69.32,49.24 L73.76,49.24 L78.76,20.92 L72.08,20.92 L63.08,41.76 L62.92,41.76 L61.12,20.92 L55,20.92 L50,49.24 L54.16,49.24 Z M87.5771429,49.92 C89.2304762,49.92 90.6304762,49.4866667 91.7771429,48.62 C92.9238095,47.7533333 93.8704762,46.6666667 94.6171429,45.36 L94.6171429,45.36 L91.5771429,43.4 C91.1771429,44.0933333 90.6971429,44.7 90.1371429,45.22 C89.5771429,45.74 88.8838095,46 88.0571429,46 C87.0971429,46 86.3904762,45.6333333 85.9371429,44.9 C85.4838095,44.1666667 85.2571429,43.2133333 85.2571429,42.04 C85.2571429,41.7466667 85.2704762,41.44 85.2971429,41.12 C85.3238095,40.8 85.3638095,40.48 85.4171429,40.16 L85.4171429,40.16 L95.8571429,40.16 C96.0971429,38.8 96.2438095,37.7466667 96.2971429,37 C96.3504762,36.2533333 96.3771429,35.6133333 96.3771429,35.08 C96.3771429,34.0933333 96.2704762,33.18 96.0571429,32.34 C95.8438095,31.5 95.4971429,30.7733333 95.0171429,30.16 C94.5371429,29.5466667 93.9171429,29.0733333 93.1571429,28.74 C92.3971429,28.4066667 91.4838095,28.24 90.4171429,28.24 C89.0304762,28.24 87.7571429,28.6333333 86.5971429,29.42 C85.4371429,30.2066667 84.4438095,31.2466667 83.6171429,32.54 C82.7904762,33.8333333 82.1504762,35.3133333 81.6971429,36.98 C81.2438095,38.6466667 81.0171429,40.3733333 81.0171429,42.16 C81.0171429,44.64 81.5904762,46.5533333 82.7371429,47.9 C83.8838095,49.2466667 85.4971429,49.92 87.5771429,49.92 Z M92.2571429,37.04 L86.0171429,37.04 C86.0971429,36.5333333 86.2504762,35.9733333 86.4771429,35.36 C86.7038095,34.7466667 86.9971429,34.1733333 87.3571429,33.64 C87.7171429,33.1066667 88.1304762,32.6666667 88.5971429,32.32 C89.0638095,31.9733333 89.5904762,31.8 90.1771429,31.8 C90.9771429,31.8 91.5571429,32.0933333 91.9171429,32.68 C92.2771429,33.2666667 92.4571429,34.0666667 92.4571429,35.08 C92.4571429,35.3733333 92.4438095,35.68 92.4171429,36 C92.3904762,36.32 92.3371429,36.6666667 92.2571429,37.04 L92.2571429,37.04 Z M104.114286,49.24 L109.354286,19 L105.034286,19 L99.7542857,49.24 L104.114286,49.24 Z M117.531429,49.92 C118.998095,49.92 120.324762,49.52 121.511429,48.72 C122.698095,47.92 123.704762,46.86 124.531429,45.54 C125.358095,44.22 125.991429,42.72 126.431429,41.04 C126.871429,39.36 127.091429,37.6533333 127.091429,35.92 C127.091429,33.5733333 126.531429,31.7066667 125.411429,30.32 C124.291429,28.9333333 122.704762,28.24 120.651429,28.24 C119.158095,28.24 117.824762,28.6333333 116.651429,29.42 C115.478095,30.2066667 114.471429,31.2533333 113.631429,32.56 C112.791429,33.8666667 112.151429,35.36 111.711429,37.04 C111.271429,38.72 111.051429,40.44 111.051429,42.2 C111.051429,44.52 111.618095,46.3866667 112.751429,47.8 C113.884762,49.2133333 115.478095,49.92 117.531429,49.92 Z M117.851429,46.12 C116.971429,46.12 116.331429,45.74 115.931429,44.98 C115.531429,44.22 115.331429,43.24 115.331429,42.04 C115.331429,41.0533333 115.444762,39.9733333 115.671429,38.8 C115.898095,37.6266667 116.218095,36.5333333 116.631429,35.52 C117.044762,34.5066667 117.558095,33.66 118.171429,32.98 C118.784762,32.3 119.478095,31.96 120.251429,31.96 C121.158095,31.96 121.811429,32.3466667 122.211429,33.12 C122.611429,33.8933333 122.811429,34.9066667 122.811429,36.16 C122.811429,37.1733333 122.698095,38.26 122.471429,39.42 C122.244762,40.58 121.924762,41.6533333 121.511429,42.64 C121.098095,43.6266667 120.584762,44.4533333 119.971429,45.12 C119.358095,45.7866667 118.651429,46.12 117.851429,46.12 Z M135.948571,49.92 C137.281905,49.92 138.355238,49.56 139.168571,48.84 C139.981905,48.12 140.628571,47.2533333 141.108571,46.24 L141.108571,46.24 L141.188571,46.24 L140.668571,49.24 L144.828571,49.24 L150.108571,19 L145.828571,19 L143.628571,31.6 L143.508571,31.6 C143.375238,30.5866667 142.988571,29.7733333 142.348571,29.16 C141.708571,28.5466667 140.788571,28.24 139.588571,28.24 C138.228571,28.24 137.008571,28.6866667 135.928571,29.58 C134.848571,30.4733333 133.935238,31.6133333 133.188571,33 C132.441905,34.3866667 131.875238,35.9333333 131.488571,37.64 C131.101905,39.3466667 130.908571,41.0133333 130.908571,42.64 C130.908571,44.8 131.321905,46.5533333 132.148571,47.9 C132.975238,49.2466667 134.241905,49.92 135.948571,49.92 Z M137.788571,46.12 C136.881905,46.12 136.235238,45.7466667 135.848571,45 C135.461905,44.2533333 135.268571,43.28 135.268571,42.08 C135.268571,41.0933333 135.375238,40.0133333 135.588571,38.84 C135.801905,37.6666667 136.115238,36.5666667 136.528571,35.54 C136.941905,34.5133333 137.455238,33.66 138.068571,32.98 C138.681905,32.3 139.388571,31.96 140.188571,31.96 C141.095238,31.96 141.748571,32.36 142.148571,33.16 C142.548571,33.96 142.748571,34.9866667 142.748571,36.24 C142.748571,37.2 142.635238,38.26 142.408571,39.42 C142.181905,40.58 141.855238,41.6533333 141.428571,42.64 C141.001905,43.6266667 140.481905,44.4533333 139.868571,45.12 C139.255238,45.7866667 138.561905,46.12 137.788571,46.12 Z M151.045714,58.84 C152.005714,58.84 152.845714,58.68 153.565714,58.36 C154.285714,58.04 154.939048,57.5866667 155.525714,57 C156.112381,56.4133333 156.632381,55.7133333 157.085714,54.9 C157.539048,54.0866667 157.992381,53.1733333 158.445714,52.16 L158.445714,52.16 L168.645714,28.92 L164.205714,28.92 L158.125714,44.4 L158.045714,44.4 L157.085714,28.92 L152.605714,28.92 L154.925714,49.76 L153.805714,52.36 C153.459048,53.16 153.072381,53.78 152.645714,54.22 C152.219048,54.66 151.632381,54.88 150.885714,54.88 C150.272381,54.88 149.832381,54.8 149.565714,54.64 L149.565714,54.64 L148.765714,58.48 C149.059048,58.5866667 149.392381,58.6733333 149.765714,58.74 C150.139048,58.8066667 150.565714,58.84 151.045714,58.84 Z" id="Melody" fill="#808080" fill-rule="nonzero"></path>
            </g>
        </g>
    </g>
</svg>